<svg width="18.33" height="17.5"  id="xxx" viewBox="0 0 18.33 17.5"><defs><linearGradient id="xx" x1=".04" y1="13.77" x2="18.02" y2="4.35" gradientTransform="translate(.14 17.81) scale(1 -1)" gradientUnits="userSpaceOnUse"><stop offset="0" stop-color="#ed6d29"/><stop offset="1" stop-color="#ae539a"/></linearGradient></defs><rect x="4.17" y="3.75" width="10" height="10" style="fill:rgba(255,255,255,.9);"/><path d="M18.33,8.75l-2.03-2.32,.28-3.08-3.01-.68-1.57-2.67-2.83,1.22L6.33,0l-1.58,2.66-3.01,.68,.28,3.08L0,8.75l2.03,2.32-.28,3.08,3.01,.68,1.58,2.66,2.83-1.23,2.83,1.22,1.57-2.66,3.01-.68-.28-3.07,2.03-2.32Zm-11.35,3.34l-1.98-2c-.32-.32-.32-.85,0-1.17l.06-.06c.32-.32,.86-.32,1.18,0l1.34,1.35,4.29-4.3c.32-.32,.86-.32,1.18,0l.06,.06c.32,.32,.32,.85,0,1.18l-4.93,4.95c-.34,.33-.87,.33-1.2,0Z" style="fill:url(#xx);"/></svg>