<svg width="21" height="20" viewBox="0 0 21 20" fill="none" xmlns="http://www.w3.org/2000/svg">
<path d="M18.3415 9.65008L10.8415 2.15008C10.5415 1.85008 10.1248 1.66675 9.6665 1.66675H3.83317C2.9165 1.66675 2.1665 2.41675 2.1665 3.33341V9.16675C2.1665 9.62508 2.34984 10.0417 2.65817 10.3501L10.1582 17.8501C10.4582 18.1501 10.8748 18.3334 11.3332 18.3334C11.7915 18.3334 12.2082 18.1501 12.5082 17.8417L18.3415 12.0084C18.6498 11.7084 18.8332 11.2917 18.8332 10.8334C18.8332 10.3751 18.6415 9.95008 18.3415 9.65008ZM11.3332 16.6751L3.83317 9.16675V3.33341H9.6665V3.32508L17.1665 10.8251L11.3332 16.6751Z" fill="#FD6D1D"/>
<path d="M5.9165 6.66675C6.60686 6.66675 7.1665 6.1071 7.1665 5.41675C7.1665 4.72639 6.60686 4.16675 5.9165 4.16675C5.22615 4.16675 4.6665 4.72639 4.6665 5.41675C4.6665 6.1071 5.22615 6.66675 5.9165 6.66675Z" fill="#FD6D1D"/>
</svg>
