<svg width="18" height="18" viewBox="0 0 18 18" fill="none" xmlns="http://www.w3.org/2000/svg">
    <path d="M14.7452 3.12531C12.7652 1.77531 10.3202 2.40531 9.00016 3.95031C7.68016 2.40531 5.23516 1.76781 3.25516 3.12531C2.20516 3.84531 1.54516 5.06031 1.50016 6.34281C1.39516 9.25281 3.97516 11.5853 7.91266 15.1628L7.98766 15.2303C8.55766 15.7478 9.43516 15.7478 10.0052 15.2228L10.0877 15.1478C14.0252 11.5778 16.5977 9.24532 16.5002 6.33532C16.4552 5.06032 15.7952 3.84531 14.7452 3.12531ZM9.07516 14.0453L9.00016 14.1203L8.92516 14.0453C5.35516 10.8128 3.00016 8.67531 3.00016 6.50781C3.00016 5.00781 4.12516 3.88281 5.62516 3.88281C6.78016 3.88281 7.90516 4.62531 8.30266 5.65281H9.70516C10.0952 4.62531 11.2202 3.88281 12.3752 3.88281C13.8752 3.88281 15.0002 5.00781 15.0002 6.50781C15.0002 8.67531 12.6452 10.8128 9.07516 14.0453Z" fill="white" fill-opacity="0.88"/>
</svg>
