<svg width="18" height="18" viewBox="0 0 18 18" fill="none" xmlns="http://www.w3.org/2000/svg">
<path d="M16.125 6.75L14.4375 3.75H11.955L10.6875 1.5H7.3125L6.045 3.75H3.5625L1.875 6.75L3.1425 9L1.875 11.25L3.5625 14.25H6.045L7.3125 16.5H10.6875L11.955 14.25H14.4375L16.125 11.25L14.8575 9L16.125 6.75ZM14.4075 6.75L13.5675 8.25H11.9625L11.1225 6.75L11.9625 5.25H13.5675L14.4075 6.75ZM8.205 10.5L7.365 9L8.205 7.5H9.795L10.635 9L9.795 10.5H8.205ZM9.81 3L10.65 4.485L9.795 6H8.205L7.35 4.485L8.19 3H9.81ZM4.44 5.25H6.045L6.885 6.75L6.045 8.25H4.44L3.5925 6.75L4.44 5.25ZM3.5925 11.25L4.4325 9.75H6.0375L6.8775 11.25L6.0375 12.75H4.44L3.5925 11.25ZM8.19 15L7.35 13.515L8.205 12H9.795L10.6425 13.515L9.81 15H8.19ZM13.56 12.75H11.955L11.115 11.25L11.955 9.75H13.56L14.4 11.25L13.56 12.75Z" fill="white" fill-opacity="0.88"/>
</svg>
