<svg width="18" height="18" viewBox="0 0 18 18" fill="none" xmlns="http://www.w3.org/2000/svg">
<path d="M5.265 10.125C3.6075 10.125 2.265 11.4675 2.265 13.125C2.265 14.7825 3.6075 16.125 5.265 16.125C6.9225 16.125 8.265 14.7825 8.265 13.125C8.265 11.4675 6.9225 10.125 5.265 10.125ZM5.265 14.625C4.44 14.625 3.765 13.95 3.765 13.125C3.765 12.3 4.44 11.625 5.265 11.625C6.09 11.625 6.765 12.3 6.765 13.125C6.765 13.95 6.09 14.625 5.265 14.625ZM9.75 10.125V16.125H15.75V10.125H9.75ZM14.25 14.625H11.25V11.625H14.25V14.625ZM5.25 1.875L1.5 8.625H9L5.25 1.875ZM5.25 4.965L6.45 7.125H4.05L5.25 4.965ZM14.4375 2.25C13.6425 2.25 13.08 2.67 12.75 3.1275C12.42 2.67 11.8575 2.25 11.0625 2.25C9.8925 2.25 9 3.21 9 4.3125C9 5.8125 10.815 6.8775 12.75 8.625C14.685 6.8775 16.5 5.8125 16.5 4.3125C16.5 3.21 15.6075 2.25 14.4375 2.25ZM12.75 6.6375C11.6625 5.7225 10.5 4.8375 10.5 4.3125C10.5 3.99 10.7625 3.75 11.0625 3.75C11.295 3.75 11.4525 3.8775 11.61 4.0275L12.75 5.1L13.89 4.0275C14.0475 3.8775 14.205 3.75 14.4375 3.75C14.7375 3.75 15 3.99 15 4.3125C15 4.8375 13.8375 5.7225 12.75 6.6375Z" fill="white" fill-opacity="0.88"/>
</svg>
