<svg width="18" height="18" viewBox="0 0 18 18" fill="none" xmlns="http://www.w3.org/2000/svg">
<path d="M15.75 5.25L9 1.5L2.25 5.25V12.75L9 16.5L15.75 12.75V5.25ZM9 3.2175L13.4325 5.6775L11.175 6.93C10.6275 6.36 9.855 6 9 6C8.145 6 7.3725 6.36 6.825 6.93L4.5675 5.6775L9 3.2175ZM8.25 14.37L3.75 11.8725V6.945L6.0975 8.25C6.03 8.4825 6 8.7375 6 9C6 10.395 6.9525 11.5725 8.25 11.9025V14.37ZM7.5 9C7.5 8.175 8.175 7.5 9 7.5C9.825 7.5 10.5 8.175 10.5 9C10.5 9.825 9.825 10.5 9 10.5C8.175 10.5 7.5 9.825 7.5 9ZM9.75 14.37V11.91C11.0475 11.58 12 10.4025 12 9.0075C12 8.745 11.97 8.49 11.9025 8.25L14.25 6.945V11.8725L9.75 14.37Z" fill="white" fill-opacity="0.88"/>
</svg>
